<svg width="30" height="31" viewBox="0 0 30 31" fill="none" xmlns="http://www.w3.org/2000/svg">
<path d="M8.71765 30.5779L7.55531 30.5864C6.59238 30.5935 5.80716 29.9697 5.80145 29.193L5.64627 8.09986L2.15923 8.12552C0.60699 8.13694 -0.179676 6.62516 0.908684 5.73401L6.68593 1.00388C7.3628 0.449744 8.46674 0.441622 9.15162 0.98574L14.9978 5.63036C16.0949 6.50209 15.3414 8.02854 13.7827 8.04001L10.2956 8.06566L10.4508 29.1588C10.4565 29.9355 9.68058 30.5708 8.71765 30.5779ZM19.5496 1.90366L19.7048 22.9968L16.2177 23.0225C14.6693 23.0339 13.8984 24.555 15.0025 25.4321L20.8487 30.0768C21.5337 30.6209 22.6376 30.6128 23.3144 30.0586L29.0916 25.3285C30.1768 24.4399 29.3985 22.9255 27.8412 22.937L24.3541 22.9626L24.199 1.86946C24.1932 1.09282 23.408 0.46899 22.4451 0.476074L21.2828 0.484625C20.3198 0.49171 19.5439 1.12702 19.5496 1.90366Z" fill="white"/>
</svg>
