<svg width="27" height="14" viewBox="0 0 27 17" fill="none" xmlns="http://www.w3.org/2000/svg">
<path d="M11.4797 1.13865L12.8175 0.274445C13.384 -0.0914816 14.3 -0.0914816 14.8604 0.274445L26.5752 7.83822C27.1416 8.20415 27.1416 8.79585 26.5752 9.15789L14.8604 16.7256C14.2939 17.0915 13.378 17.0915 12.8175 16.7256L11.4797 15.8613C10.9073 15.4915 10.9193 14.8881 11.5038 14.5261L18.7653 10.0571H1.44627C0.644794 10.0571 0 9.6406 0 9.12285V7.87715C0 7.3594 0.644794 6.94287 1.44627 6.94287H18.7653L11.5038 2.47389C10.9133 2.11186 10.9012 1.50847 11.4797 1.13865Z" fill="white"/>
</svg>
